<svg height="96" viewBox="0 0 199 96" width="199" xmlns="http://www.w3.org/2000/svg"><g fill="none" fill-rule="evenodd"><path d="m104.43235 43.4092h1.703c2.907 0 4.814-1.74 4.814-4.9615 0-3.203-1.9255-4.925-4.814-4.925h-2.1105v9.4795c0 .2595.148.407.4075.407zm-2.259-9.8865h-1.203v-1.5915h5.295c3.98 0 6.6095 2.3875 6.6095 6.5165 0 4.1475-2.6295 6.554-6.6095 6.554h-2.907c-.833 0-1.185-.3525-1.185-1.185z" fill="#000"/><path d="m121.3723 39.688-1.426-3.9805c-.2405-.6845-.5185-1.8325-.5185-1.8325h-.037s-.2585 1.148-.5 1.8325l-1.425 3.9805zm-4.314-10.757v-.259h1.2405v.2405c0 .7785.5555 1.111 1.129 1.111.574 0 1.148-.3325 1.148-1.1295v-.222h1.2225v.259c0 1.426-1.1855 2.1665-2.3705 2.1665-1.1665 0-2.3695-.7405-2.3695-2.1665zm-3.573 14.478h.2585c.3335 0 .5005-.0735.6115-.407l4.091-11.071h1.9445l4.092 11.071c.1105.3335.2955.407.61.407h.2785v1.5925h-1.037c-.926 0-1.222-.222-1.518-1.074l-.9815-2.684h-4.8135l-.9815 2.684c-.3145.852-.611 1.074-1.5365 1.074h-1.018z" fill="#000"/><path d="m131.739 38.20655c1.407 0 2.24-.907 2.24-2.37 0-1.462-.833-2.314-2.203-2.314h-2.4435v4.684zm-4.2585-4.684h-1.203v-1.5915h5.702c2.296 0 3.907 1.444 3.907 3.8315 0 2.1845-1.426 3.259-2.3515 3.462v.0375s.3335.1665.5555.5925l1.574 3.1285c.1845.389.481.426.925.426h.241v1.5925h-.9075c-1.018 0-1.388-.129-1.814-.9815l-1.777-3.5175c-.3335-.6105-.5745-.7035-1.2965-.7035h-1.703v5.2025h-1.852z" fill="#000"/><path d="m138.77365 33.92995c0-.2775-.148-.407-.407-.407h-.7965v-1.592h1.87c.833 0 1.185.351 1.185 1.185v7.239c0 1.9615 1.2405 3.1285 3.129 3.1285 1.888 0 3.129-1.167 3.129-3.147v-7.2205c0-.834.37-1.185 1.203-1.185h1.851v1.592h-.796c-.259 0-.407.1295-.407.407v6.499c0 2.8505-1.981 4.795-4.9615 4.795-2.9995 0-4.999-1.9445-4.999-4.795z" fill="#000"/><path d="m151.26975 43.4092h1.2775v-9.8865h-1.2775v-1.5915h4.3135v1.5915h-1.2775v9.8865h1.2775v1.5925h-4.3135z" fill="#000"/><path d="m158.2673 33.52275h-1.2035v-1.5915h7.6835c.833 0 1.185.351 1.185 1.1845v1.648h-1.685v-.834c0-.2775-.1485-.407-.407-.407h-3.7215v4.0915h4.573v1.593h-4.573v3.795c0 .2595.148.407.4075.407h3.814c.259 0 .407-.1475.407-.407v-.8335h1.703v1.648c0 .8325-.3515 1.185-1.1845 1.185h-5.8135c-.833 0-1.185-.3525-1.185-1.185z" fill="#000"/><path d="m172.5593 46.09355c.074.3335.1115.63.1115.9075 0 .574-.148 1.0735-.4445 1.703h-1.2775c.2225-.5735.3515-1.0365.3515-1.518 0-.333-.0555-.6855-.2035-1.0925zm-3.9615-4.1275s1.333 1.5725 3.277 1.5725c1.2215 0 2.2395-.74 2.2395-1.944 0-2.74-6.3135-2.3135-6.3135-6.387 0-1.962 1.7225-3.4985 4.185-3.4985 1.3885 0 3.7215.629 3.7215 2.4065v1.0735h-1.7035v-.611c0-.685-.9815-1.1845-2.018-1.1845-1.4075 0-2.2955.7775-2.2955 1.759 0 2.647 6.2945 2.0545 6.2945 6.3495 0 2-1.5555 3.722-4.147 3.722-2.7775 0-4.3325-1.9445-4.3325-1.9445z" fill="#000"/><path d="m181.70435 33.52275h-2.629c-.259 0-.4065.1295-.4065.407v.834h-1.648v-1.7225c0-.833.277-1.11 1.1105-1.11h8.998c.833 0 1.1105.277 1.1105 1.11v1.7225h-1.6475v-.834c0-.2775-.1485-.407-.4075-.407h-2.6285v11.479h-1.852z" fill="#000"/><path d="m190.42405 33.52275h-1.2035v-1.5915h7.683c.833 0 1.185.351 1.185 1.1845v1.648h-1.685v-.834c0-.2775-.1485-.407-.407-.407h-3.7215v4.0915h4.573v1.593h-4.573v3.795c0 .2595.1475.407.4075.407h3.814c.259 0 .407-.1475.407-.407v-.8335h1.703v1.648c0 .8325-.3515 1.185-1.1845 1.185h-5.8135c-.833 0-1.1845-.3525-1.1845-1.185z" fill="#000"/><g fill="#ea136a"><path d="m101.82935 52.668c-.11-.329-.2925-.402-.603-.402h-.256v-1.572h1.023c.914 0 1.225.2005 1.5175 1.0605l2.8335 7.9515c.2375.6945.4935 1.7725.4935 1.7725h.0365s.2375-1.078.4935-1.7725l2.833-7.9515c.3105-.86.6035-1.0605 1.517-1.0605h1.024v1.572h-.256c-.329 0-.4935.073-.6035.402l-4.0575 10.931h-1.938z"/><path d="m113.72775 62.02735h1.261v-9.761h-1.261v-1.5725h4.259v1.5725h-1.2615v9.761h1.2615v1.572h-4.259z"/><path d="m126.7595 58.35305-1.4075-3.93c-.2375-.676-.512-1.8095-.512-1.8095h-.0365s-.2555 1.1335-.493 1.8095l-1.408 3.93zm-7.7865 3.6745h.2555c.3295 0 .4935-.0735.6035-.4025l4.0395-10.931h1.9195l4.0395 10.931c.1095.329.2925.4025.6035.4025h.2735v1.5715h-1.023c-.9145 0-1.2065-.2185-1.499-1.06l-.9685-2.6505h-4.753l-.9685 2.6505c-.3105.8415-.6035 1.06-1.5175 1.06h-1.005z"/><path d="m135.7888 64.67775c.0725.3285.1095.621.1095.8955 0 .567-.146 1.0605-.439 1.6815h-1.2615c.2195-.5665.348-1.024.348-1.499 0-.3285-.0555-.676-.202-1.078zm-1.573-12.4115h-2.595c-.256 0-.402.128-.402.4015v.823h-1.6275v-1.6995c0-.823.274-1.0975 1.0975-1.0975h8.8825c.8235 0 1.0975.2745 1.0975 1.0975v1.6995h-1.6265v-.823c0-.2735-.147-.4015-.403-.4015h-2.595v11.333h-1.8285z"/><path d="m147.35715 58.35305-1.407-3.93c-.238-.676-.5125-1.8095-.5125-1.8095h-.0365s-.2555 1.1335-.4925 1.8095l-1.4085 3.93zm-4.259-10.62v-.2565h1.225v.238c0 .768.5485 1.0965 1.1145 1.0965.567 0 1.1335-.3285 1.1335-1.1145v-.22h1.207v.2565c0 1.4065-1.1705 2.1385-2.3405 2.1385-1.1515 0-2.3395-.732-2.3395-2.1385zm-3.5275 14.2945h.2555c.3295 0 .494-.0735.6035-.4025l4.0395-10.931h1.9195l4.0395 10.931c.1095.329.293.4025.6035.4025h.274v1.5715h-1.0235c-.914 0-1.2065-.2185-1.499-1.06l-.9685-2.6505h-4.753l-.9685 2.6505c-.3105.8415-.603 1.06-1.5175 1.06h-1.005z"/><path d="m48.0034 95.9268s-5.454-5.678-2.6745-7.535c1.603-1.071 2.6475.2995 2.6475.2995s1.0435-1.3705 2.647-.2995c2.7795 1.857-2.62 7.535-2.62 7.535"/><path d="m48.0044 0s-5.4555 5.677-2.6755 7.533c1.604 1.071 2.648-.2995 2.648-.2995s1.0445 1.3705 2.649.2995c2.78-1.856-2.6215-7.533-2.6215-7.533"/><path d="m95.92575 47.9568s-5.6775 5.454-7.5345 2.674c-1.071-1.604.2995-2.6475.2995-2.6475s-1.3705-1.044-.2995-2.647c1.857-2.7795 7.5345 2.6205 7.5345 2.6205"/><path d="m0 47.95485s5.677 5.4565 7.5335 2.676c1.071-1.6045-.2995-2.6485-.2995-2.6485s1.3705-1.044.2995-2.648c-1.8565-2.781-7.5335 2.6205-7.5335 2.6205"/><path d="m14.07665 81.90725s.1575-7.8715 3.4365-7.219c1.8905.376 1.6595 2.0835 1.6595 2.0835s1.7075-.231 2.084 1.6605c.653 3.278-7.18 3.475-7.18 3.475"/><path d="m81.9077 14.07765s-7.8725.156-7.219 3.435c.377 1.892 2.0845 1.6605 2.0845 1.6605s-.2305 1.707 1.6605 2.084c3.279.654 3.474-7.1795 3.474-7.1795"/><path d="m81.8833 81.87305s-7.8725-.158-7.22-3.437c.377-1.8905 2.0845-1.66 2.0845-1.66s-.231-1.707 1.66-2.083c3.2775-.6525 3.4755 7.18 3.4755 7.18"/><path d="m14.05345 14.0425s.156 7.873 3.436 7.2185c1.891-.3765 1.6605-2.084 1.6605-2.084s1.707.2305 2.084-1.66c.653-3.279-7.1805-3.4745-7.1805-3.4745"/><path d="m6.4492 71.9761s2.19-7.563 5.188-6.084c1.729.8535 1.0645 2.4425 1.0645 2.4425s1.7085.218 1.583 2.1425c-.2185 3.336-7.8355 1.499-7.8355 1.499"/><path d="m89.5244 24.01295s-7.644-1.886-7.8615 1.45c-.126 1.9245 1.5835 2.1435 1.5835 2.1435s-.665 1.59 1.064 2.443c2.9985 1.48 5.214-6.0365 5.214-6.0365"/><path d="m71.9536 89.4927s-7.562-2.19-6.083-5.188c.853-1.7295 2.442-1.064 2.442-1.064s.2185-1.709 2.143-1.5835c3.336.218 1.498 7.8355 1.498 7.8355"/><path d="m23.9917 6.418s-1.8865 7.644 1.45 7.862c1.9245.125 2.143-1.5835 2.143-1.5835s1.59.6645 2.4435-1.065c1.4795-2.9985-6.0365-5.2135-6.0365-5.2135"/><path d="m1.64795 60.40675s4.072-6.7385 6.585-4.5335c1.4495 1.271.396 2.634.396 2.634s1.594.654.975 2.48c-1.0745 3.1655-7.956-.5805-7.956-.5805"/><path d="m94.30615 35.57935s-6.8955-3.801-7.969-.634c-.62 1.8265.9745 2.48.9745 2.48s-1.0545 1.3635.396 2.636c2.513 2.2045 6.5985-4.482 6.5985-4.482"/><path d="m60.3867 94.2798s-6.738-4.0725-4.534-6.5855c1.2725-1.449 2.6345-.396 2.6345-.396s.6545-1.5935 2.48-.974c3.1655 1.0735-.5805 7.9555-.5805 7.9555"/><path d="m35.56005 1.62235s-3.8005 6.896-.634 7.9695c1.8265.619 2.48-.9745 2.48-.9745s1.3635 1.053 2.6355-.396c2.2055-2.5125-4.4815-6.599-4.4815-6.599"/><path d="m1.6267 35.57325s6.896-3.7995 7.9705-.633c.6195 1.825-.9745 2.479-.9745 2.479s1.0535 1.363-.3955 2.634c-2.5135 2.2055-6.6005-4.48-6.6005-4.48"/><path d="m94.28515 60.4019s-4.072-6.7395-6.5845-4.534c-1.4495 1.272-.396 2.635-.396 2.635s-1.594.654-.9745 2.4805c1.073 3.1665 7.955-.5815 7.955-.5815"/><path d="m35.55955 94.27785s-3.799-6.8955-.6335-7.969c1.8265-.6205 2.48.974 2.48.974s1.363-1.054 2.6345.3955c2.2045 2.513-4.481 6.5995-4.481 6.5995"/><path d="m60.3877 1.62135s-6.739 4.071-4.533 6.584c1.2715 1.4495 2.6345.396 2.6345.396s.654 1.594 2.4805.9745c3.167-1.073-.582-7.9545-.582-7.9545"/><path d="m6.4089 24.0037s7.644-1.8845 7.8625 1.4515c.1255 1.9245-1.583 2.143-1.583 2.143s.6655 1.589-1.064 2.4425c-2.998 1.4785-5.2155-6.037-5.2155-6.037"/><path d="m89.4829 71.9683s-2.188-7.5635-5.1865-6.0835c-1.729.853-1.064 2.443-1.064 2.443s-1.709.219-1.5835 2.143c.218 3.3375 7.834 1.4975 7.834 1.4975"/><path d="m23.9912 89.49125s-1.8845-7.644 1.451-7.863c1.9245-.1255 2.1425 1.5835 2.1425 1.5835s1.59-.6655 2.443 1.064c1.479 2.998-6.0365 5.2155-6.0365 5.2155"/><path d="m71.95555 6.41775s-7.5635 2.188-6.084 5.1865c.8535 1.7295 2.443 1.064 2.443 1.064s.2195 1.7095 2.1435 1.584c3.3365-.218 1.4975-7.8345 1.4975-7.8345"/><path d="m82.7822 44.23415v.25c-.9865 5.3115-1.841 11.332-2.831 16.9015-.618-.1745-.613.2755-.7495.5825-.737-.265-.317.627-.8325.5825-.4825-.507-.9605-.684-1.082-1.4145-.237-.2085-.964.0755-.9995-.334-.2425-.953.1905-2.5265.3335-3.829-2.7445 4.5905-5.5535 8.883-9.1585 12.489-3.7235 3.7225-8.2345 5.981-14.154 7.5755-12.9175 3.4805-27.15-.6275-35.385-5.578.1005-.254-.2625-.453-.333-.5825-.1645-.303-.1625-.498-.333-.7495-.272-.399-.612-.492-.75-.9155-.0685-.21-.03-.562.0835-.8325.339-.0165.8785-.3805 1.249-.583 4.6275 2.775 10.394 5.1765 16.4855 6.494 6.3355 1.37 13.164 1.053 19.2325-1.0825 5.9825-2.1055 10.298-4.691 13.7375-9.242 3.2635-4.316 6.229-9.0055 8.576-14.4035-2.18 1.2895-3.759 3.1795-6.078 4.33.0535-.4975-.5335-.355-.583-.7495-.0985-.3465-.4175-.4705-.4165-.9165-.324-.1195-.8785-.0085-.999-.333.222-.521.2245-.45-.1665-.749.464-1.198 1.6485-1.921 2.581-2.664 2.9965-2.3885 6.3605-4.279 9.492-6.4115.419.1085.625.4295 1.1655.4165.2655 1.14.9025 1.418 1.915 1.7485"/></g></g></svg>