<svg id="Layer_1" data-name="Layer 1" xmlns="http://www.w3.org/2000/svg" viewBox="0 0 106.8 140.85"><defs><style>.cls-1{fill:#fff;fill-rule:evenodd;}</style></defs><path class="cls-1" d="M4.27,114.9H6c2.91,0,4.82-1.74,4.82-5S8.86,105,6,105H3.86v9.48A.37.37,0,0,0,4.27,114.9ZM2,105H.81v-1.59H6.1c4,0,6.61,2.38,6.61,6.51s-2.63,6.56-6.61,6.56H3.2c-.84,0-1.19-.36-1.19-1.19Z"/><path class="cls-1" d="M21.21,111.18l-1.42-4c-.24-.68-.52-1.83-.52-1.83h0s-.26,1.15-.5,1.83l-1.42,4ZM16.9,100.43v-.26h1.24v.24a1,1,0,0,0,1.13,1.11,1.07,1.07,0,0,0,1.15-1.13v-.22h1.22v.26a2.2,2.2,0,0,1-2.37,2.16A2.21,2.21,0,0,1,16.9,100.43ZM13.32,114.9h.26c.34,0,.5-.07.61-.4l4.1-11.07h1.94l4.09,11.07a.53.53,0,0,0,.61.4h.28v1.6h-1a1.28,1.28,0,0,1-1.51-1.08l-1-2.68H16.86l-1,2.68a1.32,1.32,0,0,1-1.54,1.08h-1Z"/><path class="cls-1" d="M31.58,109.7a2.13,2.13,0,0,0,2.24-2.37,2.07,2.07,0,0,0-2.2-2.31H29.17v4.68ZM27.32,105h-1.2v-1.59h5.7a3.63,3.63,0,0,1,3.91,3.83,3.36,3.36,0,0,1-2.36,3.46v0a1.36,1.36,0,0,1,.56.59l1.57,3.13c.19.39.49.42.93.42h.24v1.6h-.91c-1,0-1.39-.13-1.81-1L32.17,112c-.33-.61-.57-.71-1.29-.71H29.17v5.21H27.32Z"/><path class="cls-1" d="M38.61,105.42a.35.35,0,0,0-.4-.4h-.8v-1.59h1.87c.83,0,1.18.35,1.18,1.18v7.24A2.91,2.91,0,0,0,43.59,115a2.92,2.92,0,0,0,3.13-3.15v-7.22c0-.83.37-1.18,1.21-1.18h1.85V105H49a.36.36,0,0,0-.41.4v6.5a4.63,4.63,0,0,1-5,4.8,4.65,4.65,0,0,1-5-4.8Z"/><path class="cls-1" d="M51.11,114.9h1.28V105H51.11v-1.59h4.31V105H54.15v9.88h1.27v1.6H51.11Z"/><path class="cls-1" d="M58.11,105H56.9v-1.59h7.69c.83,0,1.18.35,1.18,1.18v1.65H64.09v-.84a.36.36,0,0,0-.41-.4H60v4.09h4.57v1.59H60v3.8a.37.37,0,0,0,.41.4h3.81a.37.37,0,0,0,.41-.4v-.84h1.7v1.65c0,.83-.35,1.19-1.18,1.19H59.29c-.83,0-1.18-.36-1.18-1.19Z"/><path class="cls-1" d="M72.4,117.59a4.41,4.41,0,0,1,.11.91,3.91,3.91,0,0,1-.44,1.7H70.79a4.19,4.19,0,0,0,.35-1.52,3.33,3.33,0,0,0-.2-1.09Zm-4-4.13A4.74,4.74,0,0,0,71.71,115,2,2,0,0,0,74,113.09c0-2.74-6.31-2.31-6.31-6.39,0-2,1.72-3.5,4.19-3.5,1.38,0,3.72.63,3.72,2.41v1.07H73.84v-.61c0-.68-1-1.18-2-1.18-1.41,0-2.3.78-2.3,1.76,0,2.64,6.29,2,6.29,6.35,0,2-1.55,3.72-4.14,3.72a5.86,5.86,0,0,1-4.34-2Z"/><path class="cls-1" d="M81.54,105H78.91a.36.36,0,0,0-.4.4v.84H76.86v-1.72c0-.84.28-1.11,1.11-1.11h9c.83,0,1.11.27,1.11,1.11v1.72H86.43v-.84A.36.36,0,0,0,86,105H83.4V116.5H81.54Z"/><path class="cls-1" d="M90.26,105h-1.2v-1.59h7.68c.84,0,1.19.35,1.19,1.18v1.65H96.24v-.84a.36.36,0,0,0-.4-.4H92.11v4.09h4.58v1.59H92.11v3.8a.37.37,0,0,0,.41.4h3.82a.36.36,0,0,0,.4-.4v-.84h1.71v1.65c0,.83-.36,1.19-1.19,1.19H91.45c-.83,0-1.19-.36-1.19-1.19Z"/><path class="cls-1" d="M49,124.16a.52.52,0,0,0-.6-.4h-.26v-1.57h1c.92,0,1.23.2,1.52,1.06l2.83,7.95c.24.7.5,1.77.5,1.77h0a17.1,17.1,0,0,1,.5-1.77l2.83-7.95c.31-.86.6-1.06,1.52-1.06h1v1.57h-.25c-.33,0-.5.07-.61.4L55,135.09H53Z"/><path class="cls-1" d="M60.87,133.52h1.26v-9.76H60.87v-1.57h4.26v1.57H63.87v9.76h1.26v1.57H60.87Z"/><path class="cls-1" d="M73.9,129.85l-1.41-3.93c-.24-.68-.51-1.81-.51-1.81h0s-.25,1.13-.49,1.81L70,129.85Zm-7.79,3.67h.26c.33,0,.49-.07.6-.4l4-10.93h1.92l4,10.93a.52.52,0,0,0,.6.4h.28v1.57h-1c-.91,0-1.2-.21-1.49-1.06l-1-2.65H69.6l-1,2.65a1.3,1.3,0,0,1-1.52,1.06h-1Z"/><path class="cls-1" d="M82.93,136.17a4.32,4.32,0,0,1,.11.9,3.79,3.79,0,0,1-.44,1.68H81.34a4.1,4.1,0,0,0,.35-1.5,3,3,0,0,0-.21-1.08Zm-1.57-12.41h-2.6a.36.36,0,0,0-.4.4V125H76.73v-1.7c0-.83.28-1.1,1.1-1.1h8.88c.83,0,1.1.27,1.1,1.1V125H86.18v-.83a.35.35,0,0,0-.4-.4h-2.6v11.33H81.36Z"/><path class="cls-1" d="M94.5,129.85l-1.41-3.93c-.24-.68-.51-1.81-.51-1.81h0s-.25,1.13-.49,1.81l-1.41,3.93Zm-4.26-10.62V119h1.22v.24a1,1,0,0,0,1.12,1.1,1.05,1.05,0,0,0,1.13-1.12V119h1.21v.26a2.35,2.35,0,0,1-4.68,0Zm-3.53,14.29H87c.33,0,.49-.07.6-.4l4-10.93h1.92l4,10.93a.52.52,0,0,0,.6.4h.28v1.57h-1c-.91,0-1.2-.21-1.5-1.06l-1-2.65H90.2l-1,2.65a1.29,1.29,0,0,1-1.51,1.06h-1Z"/><path class="cls-1" d="M50.52,97.09s-5.45-5.67-2.67-7.53a1.9,1.9,0,0,1,2.65.3,1.88,1.88,0,0,1,2.64-.3c2.78,1.86-2.62,7.53-2.62,7.53"/><path class="cls-1" d="M50.52,1.17S45.07,6.84,47.85,8.7a1.9,1.9,0,0,0,2.65-.3,1.89,1.89,0,0,0,2.65.3c2.78-1.86-2.63-7.53-2.63-7.53"/><path class="cls-1" d="M98.45,49.12s-5.68,5.46-7.54,2.68a1.89,1.89,0,0,1,.3-2.65,1.89,1.89,0,0,1-.3-2.65c1.86-2.78,7.54,2.62,7.54,2.62"/><path class="cls-1" d="M2.52,49.12s5.68,5.46,7.53,2.68a1.89,1.89,0,0,0-.3-2.65,1.9,1.9,0,0,0,.3-2.65c-1.85-2.78-7.53,2.62-7.53,2.62"/><path class="cls-1" d="M16.6,83.07s.15-7.87,3.43-7.22a1.9,1.9,0,0,1,1.66,2.09,1.9,1.9,0,0,1,2.09,1.66c.65,3.28-7.18,3.47-7.18,3.47"/><path class="cls-1" d="M84.43,15.24s-7.87.16-7.22,3.44a1.89,1.89,0,0,0,2.08,1.66A1.89,1.89,0,0,0,81,22.42c3.28.66,3.48-7.18,3.48-7.18"/><path class="cls-1" d="M84.4,83s-7.87-.16-7.22-3.44a1.9,1.9,0,0,1,2.09-1.66,1.89,1.89,0,0,1,1.66-2.08C84.21,75.21,84.4,83,84.4,83"/><path class="cls-1" d="M16.57,15.21s.16,7.87,3.44,7.22a1.9,1.9,0,0,0,1.66-2.09,1.89,1.89,0,0,0,2.08-1.66c.66-3.28-7.18-3.47-7.18-3.47"/><path class="cls-1" d="M9,73.14s2.19-7.56,5.19-6.08a1.88,1.88,0,0,1,1.06,2.44,1.9,1.9,0,0,1,1.59,2.14C16.59,75,9,73.14,9,73.14"/><path class="cls-1" d="M92,25.18s-7.64-1.89-7.86,1.45a1.9,1.9,0,0,0,1.59,2.14,1.89,1.89,0,0,0,1.06,2.45c3,1.48,5.21-6,5.21-6"/><path class="cls-1" d="M74.47,90.66s-7.56-2.19-6.08-5.19a1.88,1.88,0,0,1,2.44-1.06A1.9,1.9,0,0,1,73,82.82c3.33.22,1.49,7.84,1.49,7.84"/><path class="cls-1" d="M26.51,7.58S24.63,15.23,28,15.45a1.9,1.9,0,0,0,2.15-1.59,1.88,1.88,0,0,0,2.44-1.06c1.48-3-6-5.22-6-5.22"/><path class="cls-1" d="M4.17,61.57S8.24,54.83,10.75,57a1.89,1.89,0,0,1,.4,2.63,1.89,1.89,0,0,1,1,2.48c-1.07,3.17-7.95-.58-7.95-.58"/><path class="cls-1" d="M96.83,36.75s-6.9-3.81-8-.64a1.89,1.89,0,0,0,1,2.48,1.9,1.9,0,0,0,.4,2.64c2.51,2.2,6.6-4.48,6.6-4.48"/><path class="cls-1" d="M62.91,95.45s-6.74-4.08-4.54-6.59a1.9,1.9,0,0,1,2.64-.4,1.89,1.89,0,0,1,2.48-1c3.16,1.07-.58,8-.58,8"/><path class="cls-1" d="M38.08,2.79s-3.8,6.89-.63,8a1.89,1.89,0,0,0,2.48-1,1.88,1.88,0,0,0,2.63-.39c2.21-2.51-4.48-6.6-4.48-6.6"/><path class="cls-1" d="M4.15,36.74s6.89-3.8,8-.63a1.89,1.89,0,0,1-1,2.48,1.88,1.88,0,0,1-.39,2.63c-2.52,2.21-6.6-4.48-6.6-4.48"/><path class="cls-1" d="M96.81,61.57S92.73,54.83,90.22,57a1.9,1.9,0,0,0-.4,2.64,1.89,1.89,0,0,0-1,2.48c1.07,3.17,8-.58,8-.58"/><path class="cls-1" d="M38.08,95.44s-3.8-6.89-.63-8a1.89,1.89,0,0,1,2.48,1,1.89,1.89,0,0,1,2.63.39c2.21,2.52-4.48,6.6-4.48,6.6"/><path class="cls-1" d="M62.91,2.79s-6.74,4.07-4.53,6.58a1.89,1.89,0,0,0,2.63.4,1.89,1.89,0,0,0,2.48,1c3.17-1.07-.58-7.95-.58-7.95"/><path class="cls-1" d="M8.93,25.17s7.64-1.88,7.86,1.45a1.88,1.88,0,0,1-1.58,2.14,1.9,1.9,0,0,1-1.07,2.45c-3,1.48-5.21-6-5.21-6"/><path class="cls-1" d="M92,73.13s-2.18-7.56-5.18-6.08a1.89,1.89,0,0,0-1.07,2.44,1.89,1.89,0,0,0-1.58,2.15C84.39,75,92,73.13,92,73.13"/><path class="cls-1" d="M26.51,90.66S24.63,83,28,82.79a1.9,1.9,0,0,1,2.15,1.59,1.88,1.88,0,0,1,2.44,1.06c1.48,3-6,5.22-6,5.22"/><path class="cls-1" d="M74.48,7.58s-7.57,2.19-6.09,5.19a1.88,1.88,0,0,0,2.44,1.06A1.9,1.9,0,0,0,73,15.42c3.33-.22,1.5-7.84,1.5-7.84"/><path class="cls-1" d="M85.3,45.4v.25c-1,5.31-1.84,11.33-2.83,16.9-.62-.17-.61.28-.75.58-.73-.26-.31.63-.83.59-.48-.51-1-.69-1.08-1.42-.24-.21-1,.08-1-.33-.24-.95.19-2.53.33-3.83A62.65,62.65,0,0,1,70,70.63c-3.72,3.72-8.23,6-14.15,7.57-12.92,3.48-27.15-.62-35.39-5.57.1-.26-.26-.46-.33-.59-.16-.3-.16-.49-.33-.75s-.61-.49-.75-.91a1.36,1.36,0,0,1,.08-.83A4,4,0,0,0,20.36,69a55.48,55.48,0,0,0,16.49,6.5,35.8,35.8,0,0,0,19.23-1.09c6-2.1,10.3-4.69,13.74-9.24a69.66,69.66,0,0,0,8.57-14.4c-2.18,1.29-3.76,3.18-6.08,4.33.06-.5-.53-.36-.58-.75s-.42-.47-.42-.92c-.32-.12-.87,0-1-.33.22-.52.22-.45-.17-.75.46-1.2,1.65-1.92,2.58-2.66,3-2.39,6.36-4.28,9.49-6.41.42.1.63.42,1.17.41.26,1.14.9,1.42,1.91,1.75"/></svg>