<svg id="Layer_1" data-name="Layer 1" xmlns="http://www.w3.org/2000/svg" viewBox="0 0 72 72"><defs><style>.cls-1{fill:#e8eef3;}.cls-2{fill:#ef3a4d;}.cls-3,.cls-5{fill:#fff;}.cls-3,.cls-4{stroke:#19243b;stroke-miterlimit:10;stroke-width:2px;}.cls-4{fill:none;}</style></defs><circle id="Ellipse_230" data-name="Ellipse 230" class="cls-1" cx="36" cy="35.35" r="25.99"/><path id="Path_3590" data-name="Path 3590" class="cls-2" d="M15,49.34c-2.2,0-5-2.8-5-5v-8a7.27,7.27,0,0,1,7-7h7c3.1,0,6,2.8,6,7v9c0,2.2-.8,4-3,4v17H15Z"/><path id="Path_3591" data-name="Path 3591" class="cls-3" d="M21,26.34a5,5,0,0,0,5-5v-2a5,5,0,1,0-10,0v2a5,5,0,0,0,4.9,5Z"/><line id="Line_867" data-name="Line 867" class="cls-4" x1="15.04" y1="66.34" x2="15.04" y2="36.34"/><path id="Path_3592" data-name="Path 3592" class="cls-4" d="M30,42.34v3c0,2.2-.8,4-3,4v17"/><line id="Line_868" data-name="Line 868" class="cls-4" x1="21.04" y1="49.34" x2="21.04" y2="66.34"/><line id="Line_869" data-name="Line 869" class="cls-4" x1="31.04" y1="39.34" x2="21.04" y2="39.34"/><line id="Line_870" data-name="Line 870" class="cls-4" x1="35.04" y1="39.34" x2="33.04" y2="39.34"/><path id="Path_3593" data-name="Path 3593" class="cls-4" d="M25,44.54l-5.2-5.2,5.2-5.2"/><line id="Line_871" data-name="Line 871" class="cls-4" x1="37.04" y1="39.34" x2="39.04" y2="39.34"/><path id="Path_3594" data-name="Path 3594" class="cls-4" d="M30,36.34c0-4.2-2.9-7-6-7H17a7.27,7.27,0,0,0-7,7v8c0,2.2,2.8,5,5,5"/><rect id="Rectangle_387" data-name="Rectangle 387" class="cls-3" x="5.04" y="46.34" width="12" height="10"/><path id="Path_3595" data-name="Path 3595" class="cls-5" d="M57,49.34c2,0,5-2.8,5-5v-8a7.27,7.27,0,0,0-7-7H48c-3.1,0-6,2.8-6,7v9c0,2.2,1,4,3,4v17H57Z"/><path id="Path_3596" data-name="Path 3596" class="cls-3" d="M51,26.34a5,5,0,0,1-5-5v-2a5,5,0,1,1,10,0v2A5,5,0,0,1,51,26.34Z"/><line id="Line_872" data-name="Line 872" class="cls-4" x1="57.04" y1="66.34" x2="57.04" y2="36.34"/><path id="Path_3597" data-name="Path 3597" class="cls-4" d="M42,42.34v3c0,2.2,1,4,3,4v17"/><line id="Line_873" data-name="Line 873" class="cls-4" x1="51.04" y1="49.34" x2="51.04" y2="66.34"/><line id="Line_874" data-name="Line 874" class="cls-4" x1="41.04" y1="39.34" x2="51.04" y2="39.34"/><path id="Path_3598" data-name="Path 3598" class="cls-4" d="M47,44.54l5.2-5.2L47,34.14"/><path id="Path_3599" data-name="Path 3599" class="cls-4" d="M42,36.34c0-4.2,2.9-7,6-7h7a7.27,7.27,0,0,1,7,7v8c0,2.2-2.8,5-5,5"/><rect id="Rectangle_388" data-name="Rectangle 388" class="cls-3" x="54.96" y="46.38" width="12" height="10"/></svg>